<svg id="Layer_1" data-name="Layer 1" xmlns="http://www.w3.org/2000/svg" viewBox="0 0 1000 1000"><path d="M895.28,233.57C713.09,313.9,472.12,482.38,472.12,482.38l-53.87,82.28-20.57,21.55-70.1,42.23a34.34,34.34,0,0,0-17.18-5.79,49.85,49.85,0,0,1,12.68,8.49l-6.71,4.05a14.43,14.43,0,0,0,0,15.28c5,8.19,15.09,0,15.09,0l2.82-2a40.16,40.16,0,0,1,2.12,15.63c1.78-7.22,2.1-13.18,1.43-18.11l69.22-48.37,16.85-15,14.57-15.48C453.05,551.65,490,493.36,490,493.36L711.25,350.82l39.17-23.68c39.16-23.68,133.43-38.26,133.43-38.26C895.69,261.56,895.28,233.57,895.28,233.57Z"/><path d="M299.6,663.67c-7.24-9.11-9.18-20.3-9.19-29.62l-6.27,4.21c.07,9.5,2,21.69,9.83,31,5,5.9,11.76,10,20.3,12.41,2.36-1.66,4.64-3.19,6.58-4.39C311.83,674.64,304.71,670.1,299.6,663.67Z"/><path d="M281.72,681.43c-7.13-8.25-11.37-19.7-12.35-33.22l-3.62,2.44-14-2.47-51.07,7.41,18.13,3.3s-.83,9.88-17.71,5.35-42.84,8.65-42.84,8.65L183,675.77l-18.54,5.36c-18.53,5.35-20.59,17.3-20.59,17.3,6.18-8.65,32.54-13.59,32.54-13.59-7.42,21-37.07,25.94-37.07,25.94l-14-5.76,5.35,9.06-12.77-3.71,2.47,4.94-9.47.83,7.83,7-14,1.23,8.65,7.83s47.37,42,101.73,32.95,70.42-49.43,70.42-49.43c14.83-8.65,12.36-21.82,12.36-21.82l.66-.51A44.15,44.15,0,0,1,281.72,681.43Z"/><path d="M290.12,672.47c-7.9-9.43-10.46-21.11-10.94-30.86l-5,3.35c0,.38,0,.76.05,1.14.45,9.22,2.77,22.26,11.27,32.08a40,40,0,0,0,17.69,11.62c1.76-1.33,3.83-2.88,6-4.46A43.07,43.07,0,0,1,290.12,672.47Z"/><path d="M307.34,622.65l-11.79,7.93c-.45,9.09.75,20.92,8,30,5.46,6.86,13.67,11.3,24.47,13.29a14.25,14.25,0,0,0,4.88-5.51C286.75,657.65,307.34,622.65,307.34,622.65Z"/></svg>